{"title":"The Big Lebowski.[x264](DTS)(5.1 ch)Nordic_sub.mkv","uid":5219208,"size":2201433667,"categoryP":"video","categoryS":"movies","magnet":"?xt=urn:btih:63cd2f8bfb833788180f4abb76362a6b8a936a2a&amp;dn=The+Big+Lebowski.%5Bx264%5D%28DTS%29%285.1+ch%29Nordic_sub.mkv&amp;tr=udp%3A%2F%2Ftracker.openbittorrent.com%3A80&amp;tr=udp%3A%2F%2Fopen.demonii.com%3A1337&amp;tr=udp%3A%2F%2Ftracker.coppersurfer.tk%3A6969&amp;tr=udp%3A%2F%2Fexodus.desync.com%3A6969","seeders":0,"leechers":0,"uploader":"Zen_Bud","files":-1,"time":1260868391,"description":"General\nComplete name                    : The Big Lebowski.mkv\nFormat                           : Matroska\nFile size                        : 2.05 GiB\nDuration                         : 1h 52mn\nOverall bit rate                 : 2 616 Kbps\n\n\nVideo\nID                               : 1\nFormat                           : AVC\n\nDuration                         : 1h 52mn\nBit rate                         : 1 051 Kbps\nNominal bit rate                 : 1 078 Kbps\nWidth                            : 720 pixels\nHeight                           : 400 pixels\nDisplay aspect ratio             : 16/9\nFrame rate                       : 25.000 fps\nResolution                       : 24 bits\nColorimetry                      : 4:2:0\nScan type                        : Progressive\nBits/(Pixel*Frame)               : 0.146\nStream size                      : 843 MiB (40%)\nWriting library                  : x264 core 79\n\n\nAudio\nID                               : 2\nFormat                           : DTS\nFormat/Info                      : Digital Theater Systems\nCodec ID                         : A_DTS\nDuration                         : 1h 52mn\nBit rate mode                    : Constant\nBit rate                         : 1 510 Kbps\nChannel(s)                       : 6 channels\nChannel positions                : Front: L C R, Surround: L R, LFE\nSampling rate                    : 48.0 KHz\nResolution                       : 24 bits\nStream size                      : 1.18 GiB (58%)\nLanguage                         : English\n\nText #1\nLanguage                         : Danish\n\nText #2\nLanguage                         : Finnish\n\nText #3\nLanguage                         : Norwegian\n\nText #4\nLanguage                         : Swedish\n\n","torrent":{"xt":"urn:btih:63cd2f8bfb833788180f4abb76362a6b8a936a2a","amp;dn":"The+Big+Lebowski.%5Bx264%5D%28DTS%29%285.1+ch%29Nordic_sub.mkv","amp;tr":["udp%3A%2F%2Ftracker.openbittorrent.com%3A80","udp%3A%2F%2Fopen.demonii.com%3A1337","udp%3A%2F%2Ftracker.coppersurfer.tk%3A6969","udp%3A%2F%2Fexodus.desync.com%3A6969"],"infoHash":"63cd2f8bfb833788180f4abb76362a6b8a936a2a","infoHashBuffer":{"type":"Buffer","data":[99,205,47,139,251,131,55,136,24,15,74,187,118,54,42,107,138,147,106,42]},"announce":[],"urlList":[]}}